# xmcd
#
# Track frame offsets:
#	150
#	11717
#	24350
#	42307
#	53300
#	67235
#	80665
#	93477
#	113125
#	129815
#	139815
#	147717
#
# Disc length: 2144 seconds
# Revision: 2
# Processed by: cddbd v1.5.2PL0 Copyright (c) Steve Scherf et al.
# Submitted via: dBpowerAMP V12.0
#
DISCID=a4085e0c
DTITLE=Valerie Smith and Becky Buller - Here's a Little Song
DYEAR=2008
DGENRE=Country
TTITLE0=I Got A Letter
TTITLE1=Life is Not a Guarantee
TTITLE2=Heart of the House
TTITLE3=Tennessee Courtin' Time
TTITLE4=Cottonmill
TTITLE5=Whisper Baby
TTITLE6=Hand of Help
TTITLE7=There is a Time
TTITLE8=The River
TTITLE9=Hot Grease at Midnight
TTITLE10=Four Wet Pigs and The Ham Chorus
TTITLE11=Your Goodnight is My Good-bye
EXTD=
EXTT0=
EXTT1=
EXTT2=
EXTT3=
EXTT4=
EXTT5=
EXTT6=
EXTT7=
EXTT8=
EXTT9=
EXTT10=
EXTT11=
PLAYORDER=
